<?xml version="1.0" encoding="UTF-8" standalone="no"?>
<!-- Generator: Adobe Illustrator 21.0.2, SVG Export Plug-In . SVG Version: 6.00 Build 0)  -->

<svg
   xmlns:dc="http://purl.org/dc/elements/1.1/"
   xmlns:cc="http://creativecommons.org/ns#"
   xmlns:rdf="http://www.w3.org/1999/02/22-rdf-syntax-ns#"
   xmlns:svg="http://www.w3.org/2000/svg"
   xmlns="http://www.w3.org/2000/svg"
   xmlns:sodipodi="http://sodipodi.sourceforge.net/DTD/sodipodi-0.dtd"
   xmlns:inkscape="http://www.inkscape.org/namespaces/inkscape"
   version="1.1"
   id="Ebene_1"
   x="0px"
   y="0px"
   width="29"
   height="33"
   viewBox="0 0 29 33"
   xml:space="preserve"
   sodipodi:docname="dpdlogo - black.svg"
   inkscape:version="0.92.3 (2405546, 2018-03-11)"><metadata
   id="metadata24"><rdf:RDF><cc:Work
       rdf:about=""><dc:format>image/svg+xml</dc:format><dc:type
         rdf:resource="http://purl.org/dc/dcmitype/StillImage" /><dc:title></dc:title></cc:Work></rdf:RDF></metadata><defs
   id="defs22">
	
	<linearGradient
   y2="16.0054"
   x2="14.6939"
   y1="27.308399"
   x1="1.2236"
   gradientUnits="userSpaceOnUse"
   id="SVGID_1_">
		<stop
   id="stop6"
   style="stop-color:#A90034"
   offset="0" />
		<stop
   id="stop8"
   style="stop-color:#BB0033"
   offset="0.2717" />
		<stop
   id="stop10"
   style="stop-color:#D30032"
   offset="0.7226" />
		<stop
   id="stop12"
   style="stop-color:#DC0032"
   offset="1" />
	</linearGradient>
	
</defs><sodipodi:namedview
   pagecolor="#ffffff"
   bordercolor="#666666"
   borderopacity="1"
   objecttolerance="10"
   gridtolerance="10"
   guidetolerance="10"
   inkscape:pageopacity="0"
   inkscape:pageshadow="2"
   inkscape:window-width="2880"
   inkscape:window-height="1526"
   id="namedview20"
   showgrid="false"
   inkscape:zoom="16.212329"
   inkscape:cx="43.678753"
   inkscape:cy="10.897755"
   inkscape:window-x="2869"
   inkscape:window-y="-11"
   inkscape:window-maximized="1"
   inkscape:current-layer="Ebene_1" />
<style
   type="text/css"
   id="style2">
	.st0{fill:#414042;}
	.st1{fill:url(#SVGID_1_);}
</style>
<path
   inkscape:connector-curvature="0"
   style="fill:#414042;fill-opacity:1"
   id="path15"
   d="m 19.5768,14.8352 c -0.1253,0.073 -0.3216,0.0673 -0.444,-0.0083 L 18.413,14.399 c -0.0586,-0.0362 -0.1124,-0.0944 -0.1531,-0.1643 -0.0023,-0.004 -0.0048,-0.0081 -0.0071,-0.0122 -0.0459,-0.075 -0.0721,-0.1541 -0.0748,-0.2268 l -0.0184,-0.8392 c -0.0054,-0.1414 0.0879,-0.3138 0.2136,-0.387 L 27.0263,7.7283 14.8837,1.1103 C 14.7499,1.036 14.5736,1.0003 14.3972,1 14.2206,0.9996 14.0438,1.0364 13.91,1.1103 l -12.1427,6.6181 13.603,7.9189 c 0.1259,0.0689 0.2219,0.2327 0.2219,0.3803 l -10e-5,11.5523 c 0,0.1451 -0.1037,0.3118 -0.2307,0.3794 l -0.7321,0.4065 c -0.0608,0.0324 -0.1381,0.0496 -0.2191,0.0496 -0.0046,0 -0.0094,0 -0.014,0 -0.0879,0.0019 -0.1696,-0.0153 -0.2336,-0.0496 l -0.7344,-0.4066 c -0.1249,-0.0664 -0.2268,-0.2338 -0.2268,-0.3793 l 10e-5,-10.2983 C 13.1949,17.2062 13.1397,17.1141 13.0793,17.0795 L 1.0948,10.1031 v 13.6647 c -10e-5,0.3058 0.2154,0.6829 0.4797,0.8375 l 12.3429,7.2795 c 0.132,0.0773 0.3058,0.1157 0.4795,0.1152 0.1738,-5e-4 0.3475,-0.037 0.4793,-0.1151 l 12.3447,-7.2796 c 0.2632,-0.1562 0.4782,-0.5314 0.478,-0.8375 V 10.1031 Z"
   class="st1"
   inkscape:export-xdpi="140.73019"
   inkscape:export-ydpi="140.73019" />
</svg>