<?xml version="1.0" encoding="iso-8859-1"?>
<!-- Generator: Adobe Illustrator 20.1.0, SVG Export Plug-In . SVG Version: 6.00 Build 0)  -->
<svg version="1.1" xmlns="http://www.w3.org/2000/svg" xmlns:xlink="http://www.w3.org/1999/xlink" x="0px" y="0px"
	 viewBox="0 0 68 68" style="enable-background:new 0 0 68 68;" xml:space="preserve">
<g id="Delivery_x5F_Not_x5F_delivered_x5F_blackred_x5F_pos_x5F_rgb">
	<g id="Not_Delivered_4_">
		<rect id="XMLID_2215_" style="fill:none;" width="68" height="68"/>
		<path style="fill:#414042;" d="M54,54.003H14V13.998h40V54.003z M16,52.003h36V15.998H16V52.003z"/>
		<g id="XMLID_2211_">
			<path style="fill:#414042;" d="M45,46c-0.256,0-0.512-0.098-0.707-0.293l-22-22c-0.391-0.391-0.391-1.023,0-1.414
				s1.023-0.391,1.414,0l22,22c0.391,0.391,0.391,1.023,0,1.414C45.512,45.902,45.256,46,45,46z"/>
			<path style="fill:#414042;" d="M23,46c-0.256,0-0.512-0.098-0.707-0.293c-0.391-0.391-0.391-1.023,0-1.414l22-22
				c0.391-0.391,1.023-0.391,1.414,0s0.391,1.023,0,1.414l-22,22C23.512,45.902,23.256,46,23,46z"/>
		</g>
	</g>
</g>
<g id="Layer_1">
</g>
</svg>
