<?xml version="1.0" encoding="iso-8859-1"?>
<!--
  ~ NOTICE OF LICENSE
  ~
  ~ @author    INVERTUS, UAB www.invertus.eu <support@invertus.eu>
  ~ @copyright Copyright (c) permanent, INVERTUS, UAB
  ~ @license   Addons PrestaShop license limitation
  ~ @see       /LICENSE
  ~
  ~  International Registered Trademark & Property of INVERTUS, UAB
  -->

<!-- Generator: Adobe Illustrator 20.1.0, SVG Export Plug-In . SVG Version: 6.00 Build 0)  -->
<svg version="1.1" xmlns="http://www.w3.org/2000/svg" xmlns:xlink="http://www.w3.org/1999/xlink" x="0px" y="0px"
	 viewBox="0 0 68 68" style="enable-background:new 0 0 68 68;" xml:space="preserve">
<g id="Navigation_x5F_Search_x5F_blackred_x5F_pos_x5F_rgb">
	<g id="Search_2_">
		<rect id="XMLID_1789_" style="fill:none;" width="68" height="68"/>
		<path style="fill:#414042;" d="M52.323,53.675c-0.253,0-0.505-0.095-0.7-0.286L40.91,42.893c-0.395-0.386-0.4-1.02-0.014-1.414
			c0.386-0.395,1.019-0.401,1.414-0.014l10.713,10.496c0.395,0.386,0.4,1.02,0.014,1.414C52.842,53.574,52.582,53.675,52.323,53.675
			z"/>
		<path style="fill:#414042;" d="M29.402,43.776c-8.12,0-14.726-6.605-14.726-14.726c0-8.12,6.606-14.726,14.726-14.726
			c8.12,0,14.726,6.606,14.726,14.726C44.128,37.171,37.522,43.776,29.402,43.776z M29.402,16.325
			c-7.017,0-12.726,5.708-12.726,12.726c0,7.017,5.708,12.726,12.726,12.726c7.017,0,12.726-5.709,12.726-12.726
			C42.128,22.034,36.419,16.325,29.402,16.325z"/>
	</g>
</g>
<g id="Layer_1">
</g>
</svg>
