<?xml version="1.0" encoding="iso-8859-1"?>
<!-- Generator: Adobe Illustrator 20.1.0, SVG Export Plug-In . SVG Version: 6.00 Build 0)  -->
<svg version="1.1" xmlns="http://www.w3.org/2000/svg" xmlns:xlink="http://www.w3.org/1999/xlink" x="0px" y="0px"
	 viewBox="0 0 68 68" style="enable-background:new 0 0 68 68;" xml:space="preserve">
<g id="Signage_x5F_Snow_x5F_blackred_x5F_pos_x5F_rgb">
	<g id="Snow_1_">
		<rect id="XMLID_1326_" style="fill:none;" width="68" height="68"/>
		<g id="Danger_1_">
			<path style="fill:#414042;" d="M55.986,56.041H12.014c-1.085,0-2.056-0.561-2.599-1.5s-0.542-2.062,0-3.001l21.986-38.081
				c0.542-0.939,1.514-1.5,2.599-1.5h0c1.084,0,2.056,0.561,2.598,1.5L58.585,51.54c0.542,0.939,0.543,2.061,0,3
				C58.043,55.48,57.071,56.041,55.986,56.041z M34,13.959c-0.174,0-0.606,0.049-0.866,0.5L11.147,52.54
				c-0.261,0.451-0.087,0.851,0,1.001s0.345,0.5,0.867,0.5h43.972c0.521,0,0.78-0.35,0.867-0.5c0.086-0.15,0.26-0.549-0.001-1.001
				L34.866,14.459C34.606,14.008,34.174,13.959,34,13.959L34,13.959z"/>
		</g>
		<g id="XMLID_1321_">
			<path style="fill:#414042;" d="M35.999,50.188c-0.223,0-0.446-0.074-0.633-0.227l-2-1.637c-0.427-0.35-0.49-0.979-0.141-1.407
				c0.35-0.427,0.98-0.49,1.407-0.14l2,1.637c0.427,0.35,0.49,0.979,0.14,1.407C36.576,50.063,36.289,50.188,35.999,50.188z"/>
			<path style="fill:#414042;" d="M32,50.188c-0.29,0-0.577-0.125-0.774-0.366c-0.35-0.428-0.287-1.058,0.141-1.407L33,47.077
				V33.298l-1.633-1.336c-0.427-0.35-0.49-0.979-0.141-1.407c0.35-0.428,0.979-0.49,1.407-0.141L35,32.35v15.675l-2.367,1.937
				C32.447,50.113,32.223,50.188,32,50.188z"/>
			<path style="fill:#414042;" d="M34,33.824c-0.29,0-0.577-0.125-0.774-0.367c-0.35-0.428-0.287-1.058,0.141-1.407l2-1.636
				c0.427-0.35,1.056-0.288,1.407,0.141c0.35,0.428,0.286,1.058-0.142,1.407l-2,1.636C34.447,33.75,34.223,33.824,34,33.824z"/>
		</g>
		<g id="XMLID_1316_">
			<path style="fill:#414042;" d="M27.207,47.419c-0.053,0-0.108-0.004-0.163-0.013c-0.545-0.09-0.915-0.604-0.825-1.148l0.417-2.55
				c0.089-0.544,0.6-0.912,1.148-0.826c0.545,0.09,0.915,0.604,0.825,1.148l-0.417,2.55C28.113,47.07,27.688,47.419,27.207,47.419z"
				/>
			<path style="fill:#414042;" d="M27.712,44.972l-2.86-1.081c-0.517-0.195-0.777-0.772-0.582-1.289s0.774-0.776,1.289-0.582
				l1.974,0.747l11.933-6.89l0.34-2.083c0.09-0.546,0.601-0.917,1.148-0.826c0.545,0.089,0.915,0.603,0.826,1.148l-0.494,3.019
				L27.712,44.972z"/>
			<path style="fill:#414042;" d="M42.794,38.419c-0.117,0-0.237-0.021-0.354-0.064l-2.417-0.913
				c-0.517-0.195-0.777-0.772-0.582-1.289s0.772-0.776,1.289-0.582l2.417,0.913c0.517,0.195,0.777,0.772,0.582,1.289
				C43.578,38.173,43.197,38.419,42.794,38.419z"/>
		</g>
		<g id="XMLID_1301_">
			<path style="fill:#414042;" d="M25.206,38.419c-0.404,0-0.784-0.246-0.936-0.646c-0.195-0.517,0.065-1.094,0.582-1.289
				l2.417-0.913c0.516-0.193,1.094,0.065,1.289,0.582s-0.065,1.094-0.582,1.289l-2.417,0.913
				C25.443,38.398,25.324,38.419,25.206,38.419z"/>
			<path style="fill:#414042;" d="M40.287,44.972l-13.575-7.837l-0.493-3.019c-0.089-0.545,0.28-1.059,0.826-1.148
				c0.544-0.086,1.059,0.281,1.148,0.826l0.341,2.083l11.933,6.89l1.974-0.747c0.514-0.194,1.094,0.064,1.289,0.582
				c0.195,0.517-0.065,1.094-0.582,1.289L40.287,44.972z"/>
			<path style="fill:#414042;" d="M40.793,47.419c-0.481,0-0.905-0.349-0.986-0.839l-0.417-2.55
				c-0.089-0.545,0.281-1.059,0.826-1.148c0.546-0.087,1.059,0.281,1.148,0.826l0.417,2.55c0.089,0.545-0.281,1.059-0.826,1.148
				C40.9,47.415,40.847,47.419,40.793,47.419z"/>
		</g>
	</g>
</g>
<g id="Layer_1">
</g>
</svg>
