<?xml version="1.0" encoding="iso-8859-1"?>
<!--
  ~ NOTICE OF LICENSE
  ~
  ~ @author    INVERTUS, UAB www.invertus.eu <support@invertus.eu>
  ~ @copyright Copyright (c) permanent, INVERTUS, UAB
  ~ @license   Addons PrestaShop license limitation
  ~ @see       /LICENSE
  ~
  ~  International Registered Trademark & Property of INVERTUS, UAB
  -->

<!-- Generator: Adobe Illustrator 20.1.0, SVG Export Plug-In . SVG Version: 6.00 Build 0)  -->
<svg version="1.1" xmlns="http://www.w3.org/2000/svg" xmlns:xlink="http://www.w3.org/1999/xlink" x="0px" y="0px"
	 viewBox="0 0 68 68" style="enable-background:new 0 0 68 68;" xml:space="preserve">
<g id="Navigation_x5F_Cloud_x5F_blackred_x5F_pos_x5F_rgb">
	<g id="XMLID_1917_">
		<rect id="XMLID_1919_" style="fill:none;" width="68" height="68"/>
		<path style="fill:#414042;" d="M51.719,49.882c-0.332,0-0.66-0.019-0.984-0.05l-38.204,0.005c-3.555,0-6.313-3.907-6.313-7.268
			c0-3.48,2.832-6.313,6.313-6.313c0.005,0,0.01,0,0.016,0c0.292-5.288,4.687-9.5,10.047-9.5c1,0,1.979,0.145,2.922,0.431
			c2.053-5.389,7.312-9.069,13.141-9.069c6.9,0,12.71,4.958,13.855,11.668c5.179,0.406,9.27,4.75,9.27,10.032
			C61.781,45.368,57.268,49.882,51.719,49.882z M12.531,38.257c-2.378,0-4.313,1.935-4.313,4.313c0,2.386,1.924,5.268,4.313,5.268
			h38.3c0.356,0.03,0.62,0.045,0.888,0.045c4.445,0,8.063-3.617,8.063-8.063c0-4.438-3.604-8.051-8.04-8.063l-0.999,0.021
			l-0.099-0.909c-0.663-6.128-5.816-10.75-11.987-10.75c-5.304,0-10.059,3.553-11.562,8.64l-0.318,1.076l-1.032-0.438
			c-0.998-0.424-2.058-0.639-3.151-0.639c-4.446,0-8.063,3.617-8.063,8.062c0,0.107,0.008,0.214,0.015,0.319l0.083,1.453
			l-1.264-0.249C13.08,38.285,12.799,38.257,12.531,38.257z"/>
	</g>
</g>
<g id="Layer_1">
</g>
</svg>
