<?xml version="1.0" encoding="iso-8859-1"?>
<!--
  ~ NOTICE OF LICENSE
  ~
  ~ @author    INVERTUS, UAB www.invertus.eu <support@invertus.eu>
  ~ @copyright Copyright (c) permanent, INVERTUS, UAB
  ~ @license   Addons PrestaShop license limitation
  ~ @see       /LICENSE
  ~
  ~  International Registered Trademark & Property of INVERTUS, UAB
  -->

<!-- Generator: Adobe Illustrator 20.1.0, SVG Export Plug-In . SVG Version: 6.00 Build 0)  -->
<svg version="1.1" xmlns="http://www.w3.org/2000/svg" xmlns:xlink="http://www.w3.org/1999/xlink" x="0px" y="0px"
	 viewBox="0 0 68 68" style="enable-background:new 0 0 68 68;" xml:space="preserve">
<g id="Navigation_x5F_Edit_x5F_blackred_x5F_pos_x5F_rgb">
	<g id="Pencil_1_">
		<rect id="XMLID_1912_" style="fill:none;" width="68" height="68"/>
		<path style="fill:#414042;" d="M20.918,55.152c-0.256,0-0.512-0.098-0.707-0.293c-0.391-0.391-0.391-1.023,0-1.414l28.992-28.991
			l-5.657-5.657L17.383,44.96c-0.391,0.391-1.023,0.391-1.414,0s-0.391-1.023,0-1.414l27.577-27.577l8.485,8.485L21.625,54.859
			C21.43,55.055,21.174,55.152,20.918,55.152z"/>
		<path style="fill:#414042;" d="M20.982,49.56c-0.256,0-0.512-0.098-0.707-0.293l-4.307-4.307c-0.391-0.391-0.391-1.023,0-1.414
			s1.023-0.391,1.414,0l4.307,4.307c0.391,0.391,0.391,1.023,0,1.414C21.494,49.462,21.238,49.56,20.982,49.56z"/>
		<path style="fill:#414042;" d="M11.727,57.273c-0.075,0-0.15-0.008-0.226-0.025c-0.539-0.124-0.874-0.661-0.75-1.199l2.121-9.192
			c0.125-0.539,0.664-0.872,1.199-0.75c0.539,0.124,0.874,0.661,0.75,1.199l-2.121,9.192C12.594,56.961,12.182,57.273,11.727,57.273
			z"/>
		<path style="fill:#414042;" d="M11.726,57.273c-0.256,0-0.512-0.098-0.707-0.293c-0.391-0.391-0.391-1.023,0-1.414l2.828-2.828
			c0.391-0.391,1.023-0.391,1.414,0s0.391,1.023,0,1.414l-2.828,2.828C12.238,57.176,11.982,57.273,11.726,57.273z"/>
		<path style="fill:#414042;" d="M11.725,57.273c-0.455,0-0.867-0.313-0.974-0.775c-0.124-0.538,0.211-1.075,0.75-1.199l9.192-2.121
			c0.53-0.125,1.075,0.211,1.199,0.75c0.124,0.538-0.211,1.075-0.75,1.199l-9.192,2.121C11.875,57.266,11.8,57.273,11.725,57.273z"
			/>
		<path style="fill:#414042;" d="M53.445,22.625c-0.256,0-0.512-0.098-0.707-0.293c-0.391-0.391-0.391-1.023,0-1.414l2.121-2.121
			l-5.656-5.657l-2.122,2.122c-0.391,0.391-1.023,0.391-1.414,0s-0.391-1.024,0-1.414l3.536-3.536l8.484,8.485l-3.535,3.535
			C53.957,22.528,53.701,22.625,53.445,22.625z"/>
	</g>
</g>
<g id="Layer_1">
</g>
</svg>
