<?xml version="1.0" encoding="iso-8859-1"?>
<!--
  ~ NOTICE OF LICENSE
  ~
  ~ @author    INVERTUS, UAB www.invertus.eu <support@invertus.eu>
  ~ @copyright Copyright (c) permanent, INVERTUS, UAB
  ~ @license   Addons PrestaShop license limitation
  ~ @see       /LICENSE
  ~
  ~  International Registered Trademark & Property of INVERTUS, UAB
  -->

<!-- Generator: Adobe Illustrator 20.1.0, SVG Export Plug-In . SVG Version: 6.00 Build 0)  -->
<svg version="1.1" xmlns="http://www.w3.org/2000/svg" xmlns:xlink="http://www.w3.org/1999/xlink" x="0px" y="0px"
	 viewBox="0 0 68 68" style="enable-background:new 0 0 68 68;" xml:space="preserve">
<g id="Navigation_x5F_Delete_x5F_Cancel_x5F_blackred_x5F_pos_x5F_rgb">
	<g id="Delete_x5F_Cancel_2_">
		<rect id="XMLID_1799_" style="fill:none;" width="68" height="68"/>
		<path style="fill:#414042;" d="M49.557,50.557c-0.256,0-0.512-0.098-0.707-0.293L17.736,19.151c-0.391-0.391-0.391-1.023,0-1.414
			s1.023-0.391,1.414,0L50.264,48.85c0.391,0.391,0.391,1.023,0,1.414C50.068,50.459,49.813,50.557,49.557,50.557z"/>
		<path style="fill:#414042;" d="M18.443,50.557c-0.256,0-0.512-0.098-0.707-0.293c-0.391-0.391-0.391-1.023,0-1.414L48.85,17.737
			c0.391-0.391,1.023-0.391,1.414,0s0.391,1.023,0,1.414L19.15,50.264C18.955,50.459,18.699,50.557,18.443,50.557z"/>
	</g>
</g>
<g id="Layer_1">
</g>
</svg>
