<?xml version="1.0" encoding="iso-8859-1"?>
<!--
  ~ NOTICE OF LICENSE
  ~
  ~ @author    INVERTUS, UAB www.invertus.eu <support@invertus.eu>
  ~ @copyright Copyright (c) permanent, INVERTUS, UAB
  ~ @license   Addons PrestaShop license limitation
  ~ @see       /LICENSE
  ~
  ~  International Registered Trademark & Property of INVERTUS, UAB
  -->

<!-- Generator: Adobe Illustrator 20.1.0, SVG Export Plug-In . SVG Version: 6.00 Build 0)  -->
<svg version="1.1" xmlns="http://www.w3.org/2000/svg" xmlns:xlink="http://www.w3.org/1999/xlink" x="0px" y="0px"
	 viewBox="0 0 68 68" style="enable-background:new 0 0 68 68;" xml:space="preserve">
<g id="Navigation_x5F_Save_x5F_blackred_x5F_pos_x5F_rgb">
	<g id="Save_x5F_settings_1_">
		<rect id="XMLID_1867_" style="fill:none;" width="68" height="68"/>
		<g id="save_1_">
			<g>
				<line id="XMLID_560_" style="fill:#414042;" x1="24" y1="44" x2="44" y2="44"/>
				<path style="fill:#414042;" d="M44,45H24c-0.552,0-1-0.447-1-1s0.448-1,1-1h20c0.553,0,1,0.447,1,1S44.553,45,44,45z"/>
			</g>
			<g>
				<line id="XMLID_559_" style="fill:#414042;" x1="24" y1="40" x2="44" y2="40"/>
				<path style="fill:#414042;" d="M44,41H24c-0.552,0-1-0.447-1-1s0.448-1,1-1h20c0.553,0,1,0.447,1,1S44.553,41,44,41z"/>
			</g>
			<g>
				<line id="XMLID_558_" style="fill:#414042;" x1="24" y1="36" x2="44" y2="36"/>
				<path style="fill:#414042;" d="M44,37H24c-0.552,0-1-0.447-1-1s0.448-1,1-1h20c0.553,0,1,0.447,1,1S44.553,37,44,37z"/>
			</g>
			<path style="fill:#414042;" d="M53,53H15V23.586L23.586,15L29,15.003V25h14v-7.988l-11.002-0.007c-0.552,0-1-0.448-1-1
				s0.448-1,1-1h0l11.845,0.007C43.895,15.004,43.947,15,44,15h9V53z M17,51h34V17h-6v10H27v-9.998L24.415,17L17,24.414V51z"/>
		</g>
		<rect id="XMLID_1862_" x="35" y="19" style="fill:#414042;" width="6" height="4"/>
	</g>
</g>
<g id="Layer_1">
</g>
</svg>
