<?xml version="1.0" encoding="iso-8859-1"?>
<!--
  ~ NOTICE OF LICENSE
  ~
  ~ @author    INVERTUS, UAB www.invertus.eu <support@invertus.eu>
  ~ @copyright Copyright (c) permanent, INVERTUS, UAB
  ~ @license   Addons PrestaShop license limitation
  ~ @see       /LICENSE
  ~
  ~  International Registered Trademark & Property of INVERTUS, UAB
  -->

<!-- Generator: Adobe Illustrator 20.1.0, SVG Export Plug-In . SVG Version: 6.00 Build 0)  -->
<svg version="1.1" xmlns="http://www.w3.org/2000/svg" xmlns:xlink="http://www.w3.org/1999/xlink" x="0px" y="0px"
	 viewBox="0 0 68 68" style="enable-background:new 0 0 68 68;" xml:space="preserve">
<g id="Navigation_x5F_Settings_x5F_blackred_x5F_pos_x5F_rgb">
	<g id="Settings_1_">
		<rect id="XMLID_1770_" style="fill:none;" width="68" height="68"/>
		<path style="fill:#414042;" d="M34,50c-8.822,0-16-7.178-16-16s7.178-16,16-16s16,7.178,16,16S42.822,50,34,50z M34,20
			c-7.72,0-14,6.28-14,14s6.28,14,14,14s14-6.28,14-14S41.72,20,34,20z"/>
		<path style="fill:#414042;" d="M34,45c-6.065,0-11-4.935-11-11s4.935-11,11-11s11,4.935,11,11S40.065,45,34,45z M34,25
			c-4.962,0-9,4.038-9,9c0,4.963,4.038,9,9,9c4.963,0,9-4.037,9-9C43,29.038,38.963,25,34,25z"/>
		<g id="XMLID_1759_">
			<path id="XMLID_1767_" style="fill:#414042;" d="M37.75,16.63h-0.009c0.023-0.968-0.695-1.817-1.674-1.913
				c-1.362-0.125-2.803-0.125-4.141,0.025c-0.037,0-0.062,0-0.099,0c-0.963,0.112-1.688,0.925-1.676,1.888V19h7.59L37.75,16.63z"/>
			<path id="XMLID_1766_" style="fill:#414042;" d="M51.37,37.8v-0.009c0.968,0.023,1.817-0.695,1.913-1.674
				c0.125-1.362,0.125-2.803-0.025-4.141c0-0.037,0-0.062,0-0.099c-0.112-0.963-0.925-1.688-1.888-1.676H49v7.59L51.37,37.8z"/>
			<path id="XMLID_1765_" style="fill:#414042;" d="M30.276,51.37h0.009c-0.023,0.968,0.695,1.817,1.674,1.913
				c1.362,0.125,2.803,0.125,4.141-0.025c0.037,0,0.062,0,0.099,0c0.963-0.112,1.688-0.925,1.676-1.888V49h-7.59L30.276,51.37z"/>
			<path id="XMLID_1764_" style="fill:#414042;" d="M24.375,19.065l-0.007,0.007c-0.668-0.701-1.777-0.793-2.536-0.169
				c-1.052,0.875-2.071,1.894-2.911,2.946c-0.026,0.026-0.044,0.044-0.07,0.07c-0.602,0.76-0.539,1.848,0.15,2.52l1.676,1.676
				l5.367-5.367L24.375,19.065z"/>
			<path id="XMLID_1763_" style="fill:#414042;" d="M48.851,24.386l-0.007-0.007c0.701-0.668,0.793-1.777,0.169-2.536
				c-0.875-1.052-1.894-2.071-2.946-2.911c-0.026-0.026-0.044-0.044-0.07-0.07c-0.76-0.602-1.848-0.539-2.52,0.15l-1.676,1.676
				l5.367,5.367L48.851,24.386z"/>
			<path id="XMLID_1762_" style="fill:#414042;" d="M43.577,48.888l0.007-0.007c0.668,0.701,1.777,0.793,2.536,0.169
				c1.052-0.875,2.071-1.894,2.911-2.946c0.026-0.026,0.044-0.044,0.07-0.07c0.602-0.76,0.539-1.848-0.15-2.52l-1.676-1.676
				l-5.367,5.367L43.577,48.888z"/>
			<path id="XMLID_1761_" style="fill:#414042;" d="M19.121,43.581l0.007,0.007c-0.701,0.668-0.793,1.777-0.169,2.536
				c0.875,1.052,1.894,2.071,2.946,2.911c0.026,0.026,0.044,0.044,0.07,0.07c0.76,0.602,1.848,0.539,2.52-0.15l1.676-1.676
				l-5.367-5.367L19.121,43.581z"/>
			<path id="XMLID_1760_" style="fill:#414042;" d="M16.629,30.274v0.009c-0.968-0.023-1.817,0.695-1.913,1.674
				c-0.125,1.362-0.125,2.803,0.025,4.141c0,0.037,0,0.062,0,0.099c0.112,0.963,0.925,1.688,1.888,1.676H19v-7.59L16.629,30.274z"/>
		</g>
	</g>
</g>
<g id="Layer_1">
</g>
</svg>
