<?xml version="1.0" encoding="iso-8859-1"?>
<!-- Generator: Adobe Illustrator 20.1.0, SVG Export Plug-In . SVG Version: 6.00 Build 0)  -->
<svg version="1.1" xmlns="http://www.w3.org/2000/svg" xmlns:xlink="http://www.w3.org/1999/xlink" x="0px" y="0px"
	 viewBox="0 0 68 68" style="enable-background:new 0 0 68 68;" xml:space="preserve">
<g id="Navigation_x5F_Download_x5F_Save_x5F_to_x5F_blackred_x5F_pos_x5F_rgb">
	<g id="Download_x5F_Save_x5F_to_1_">
		<rect id="XMLID_1916_" style="fill:none;" width="68" height="68"/>
		<path style="fill:#414042;" d="M34,40.49c-0.552,0-1-0.447-1-1v-28c0-0.552,0.448-1,1-1s1,0.448,1,1v28
			C35,40.043,34.552,40.49,34,40.49z"/>
		<path style="fill:#414042;" d="M55.25,57.51h-42.5c-1.654,0-3-1.346-3-3v-9.02c0-1.654,1.346-3,3-3H18c0.552,0,1,0.447,1,1
			s-0.448,1-1,1h-5.25c-0.551,0-1,0.448-1,1v9.02c0,0.552,0.449,1,1,1h42.5c0.552,0,1-0.448,1-1v-9.02c0-0.552-0.448-1-1-1H50
			c-0.553,0-1-0.447-1-1s0.447-1,1-1h5.25c1.654,0,3,1.346,3,3v9.02C58.25,56.164,56.904,57.51,55.25,57.51z"/>
		<path style="fill:#414042;" d="M34,49.904L22.293,38.197c-0.391-0.391-0.391-1.023,0-1.414s1.023-0.391,1.414,0L34,47.076
			l10.293-10.293c0.391-0.391,1.023-0.391,1.414,0s0.391,1.023,0,1.414L34,49.904z"/>
	</g>
</g>
<g id="Layer_1">
</g>
</svg>
