<?xml version="1.0" encoding="iso-8859-1"?>
<!--
  ~ NOTICE OF LICENSE
  ~
  ~ @author    INVERTUS, UAB www.invertus.eu <support@invertus.eu>
  ~ @copyright Copyright (c) permanent, INVERTUS, UAB
  ~ @license   Addons PrestaShop license limitation
  ~ @see       /LICENSE
  ~
  ~  International Registered Trademark & Property of INVERTUS, UAB
  -->

<!-- Generator: Adobe Illustrator 20.1.0, SVG Export Plug-In . SVG Version: 6.00 Build 0)  -->
<svg version="1.1" xmlns="http://www.w3.org/2000/svg" xmlns:xlink="http://www.w3.org/1999/xlink" x="0px" y="0px"
	 viewBox="0 0 68 68" style="enable-background:new 0 0 68 68;" xml:space="preserve">
<g id="Navigation_x5F_Trash_x5F_blackred_x5F_pos_x5F_rgb">
	<g id="Trash_1_">
		<rect id="XMLID_1841_" style="fill:none;" width="68" height="68"/>
		<g id="Trash_4_">
			<g id="Shopping_Cart_2_">
				<path style="fill:#414042;" d="M53,22H15c-0.552,0-1-0.448-1-1s0.448-1,1-1h38c0.553,0,1,0.448,1,1S53.553,22,53,22z"/>
				<path style="fill:#414042;" d="M47.524,56H20.473l-5.515-30.824c-0.097-0.544,0.265-1.063,0.808-1.161
					c0.547-0.096,1.064,0.265,1.161,0.808L22.147,54h23.698l5.111-29.172c0.096-0.543,0.604-0.911,1.158-0.813
					c0.544,0.095,0.907,0.613,0.813,1.157L47.524,56z"/>
			</g>
			<path style="fill:#414042;" d="M27.999,50c-0.457,0-0.869-0.314-0.974-0.778l-5-22c-0.123-0.539,0.215-1.074,0.753-1.197
				c0.542-0.122,1.075,0.215,1.197,0.753l5,22c0.123,0.539-0.215,1.074-0.753,1.197C28.147,49.992,28.072,50,27.999,50z"/>
			<path style="fill:#414042;" d="M40.001,50c-0.073,0-0.148-0.008-0.223-0.024c-0.538-0.123-0.876-0.658-0.754-1.197l5-22
				c0.122-0.539,0.661-0.876,1.197-0.753c0.538,0.123,0.876,0.658,0.754,1.197l-5,22C40.87,49.686,40.457,50,40.001,50z"/>
			<path style="fill:#414042;" d="M34,50c-0.552,0-1-0.447-1-1V27c0-0.552,0.448-1,1-1s1,0.448,1,1v22C35,49.553,34.552,50,34,50z"
				/>
		</g>
		<path style="fill:#414042;" d="M38.179,18.024c-0.553,0-1-0.448-1-1c0-1.696-1.39-3.024-3.164-3.024s-3.164,1.328-3.164,3.024
			c0,0.552-0.448,1-1,1s-1-0.448-1-1c0-2.817,2.268-5.024,5.164-5.024c2.895,0,5.164,2.207,5.164,5.024
			C39.179,17.576,38.731,18.024,38.179,18.024z"/>
	</g>
</g>
<g id="Layer_1">
</g>
</svg>
