<?xml version="1.0" encoding="iso-8859-1"?>
<!--
  ~ NOTICE OF LICENSE
  ~
  ~ @author    INVERTUS, UAB www.invertus.eu <support@invertus.eu>
  ~ @copyright Copyright (c) permanent, INVERTUS, UAB
  ~ @license   Addons PrestaShop license limitation
  ~ @see       /LICENSE
  ~
  ~  International Registered Trademark & Property of INVERTUS, UAB
  -->

<!-- Generator: Adobe Illustrator 20.1.0, SVG Export Plug-In . SVG Version: 6.00 Build 0)  -->
<svg version="1.1" xmlns="http://www.w3.org/2000/svg" xmlns:xlink="http://www.w3.org/1999/xlink" x="0px" y="0px"
	 viewBox="0 0 68 68" style="enable-background:new 0 0 68 68;" xml:space="preserve">
<g id="Navigation_x5F_Import_x5F_File_x5F_blackred_x5F_pos_x5F_rgb">
	<g id="Import_1_">
		<rect id="XMLID_1824_" x="0" y="0" style="fill:none;" width="68" height="68"/>
		<path style="fill:#414042;" d="M43.518,46c-0.553,0-1-0.447-1-1v-5c0-0.553,0.447-1,1-1s1,0.447,1,1v5
			C44.518,45.553,44.07,46,43.518,46z"/>
		<path style="fill:#414042;" d="M33.932,58H10.517V10h34v8c0,0.552-0.447,1-1,1s-1-0.448-1-1v-6h-30v44h20.587l7.707-7.707
			c0.391-0.391,1.023-0.391,1.414,0s0.391,1.023,0,1.414L33.932,58z"/>
		<path style="fill:#414042;" d="M32.517,54c-0.552,0-1-0.447-1-1v-9h12c0.553,0,1,0.447,1,1s-0.447,1-1,1h-10v7
			C33.517,53.553,33.069,54,32.517,54z"/>
		<path style="fill:#414042;" d="M38.551,38c-0.256,0-0.512-0.098-0.707-0.293L29.137,29l8.707-8.707
			c0.391-0.391,1.023-0.391,1.414,0s0.391,1.023,0,1.414L31.965,29l7.293,7.293c0.391,0.391,0.391,1.023,0,1.414
			C39.063,37.902,38.807,38,38.551,38z"/>
		<path style="fill:#414042;" d="M56.483,30H36.551c-0.553,0-1-0.448-1-1s0.447-1,1-1h19.933c0.553,0,1,0.448,1,1
			S57.036,30,56.483,30z"/>
		<path style="fill:#414042;" d="M33.517,18h-18c-0.552,0-1-0.448-1-1s0.448-1,1-1h18c0.552,0,1,0.448,1,1S34.069,18,33.517,18z"/>
		<path style="fill:#414042;" d="M29.517,24h-14c-0.552,0-1-0.448-1-1s0.448-1,1-1h14c0.552,0,1,0.448,1,1S30.069,24,29.517,24z"/>
		<path style="fill:#414042;" d="M23.517,30h-8c-0.552,0-1-0.448-1-1s0.448-1,1-1h8c0.552,0,1,0.448,1,1S24.069,30,23.517,30z"/>
		<path style="fill:#414042;" d="M26.517,36h-11c-0.552,0-1-0.447-1-1c0-0.552,0.448-1,1-1h11c0.552,0,1,0.448,1,1
			C27.517,35.553,27.069,36,26.517,36z"/>
	</g>
</g>
<g id="Layer_1">
</g>
</svg>
